<?xml version="1.0" encoding="UTF-8"?>
<svg version="1.1" xmlns="http://www.w3.org/2000/svg" width="200" height="200">
<path d="M0 0 C0 0.66 0 1.32 0 2 C-0.7734375 2.6496875 -0.7734375 2.6496875 -1.5625 3.3125 C-2.036875 3.869375 -2.51125 4.42625 -3 5 C-2.58586645 8.75905839 -1.35130279 11.54700757 0.5 14.8125 C1.04785156 15.78574219 1.59570312 16.75898438 2.16015625 17.76171875 C2.76730469 18.83035156 3.37445313 19.89898438 4 21 C4.61746094 22.12019531 5.23492187 23.24039062 5.87109375 24.39453125 C11.33208373 34.27802352 17.13524925 43.94306062 23.03491211 53.57080078 C23.66276611 54.60446777 24.29062012 55.63813477 24.9375 56.703125 C25.50339844 57.62770508 26.06929688 58.55228516 26.65234375 59.50488281 C27.85122791 61.72455601 28.54439655 63.53599271 29 66 C25.77950085 65.59743761 23.63499402 64.80345832 20.75 63.25 C15.79156091 60.60867764 10.42365313 59.33224466 4.99121094 58.01464844 C-1.18415728 56.37810616 -3.30716734 53.77413965 -6.6328125 48.32421875 C-7.63444933 46.55431074 -8.63442794 44.78346336 -9.6328125 43.01171875 C-10.08398438 42.34785156 -10.53515625 41.68398438 -11 41 C-11.66 41 -12.32 41 -13 41 C-14.22966881 42.56449589 -14.22966881 42.56449589 -15.3828125 44.61328125 C-15.82753906 45.36673828 -16.27226563 46.12019531 -16.73046875 46.89648438 C-17.19066406 47.69376953 -17.65085938 48.49105469 -18.125 49.3125 C-18.59292969 50.09818359 -19.06085938 50.88386719 -19.54296875 51.69335938 C-22.24596415 56.05002192 -22.24596415 56.05002192 -23 61 C-22.08057617 61.00616333 -22.08057617 61.00616333 -21.14257812 61.01245117 C1.8287437 61.28090809 20.19520328 65.31282134 37.171875 81.98046875 C50.57408587 95.85093869 56.37233471 112.33226246 56.23242188 131.32348633 C55.85024539 149.64311594 49.09894482 165.25046316 36.8125 178.75 C22.68719529 191.74657032 4.06980799 198.47458965 -15.01953125 198.2734375 C-34.52944164 196.93320813 -51.37292092 188.48406789 -64.75 174.1875 C-77.74289389 158.42154243 -81.4405094 139.91765793 -80 120 C-78.17946446 106.41792902 -71.42675414 94.19929853 -63.87109375 82.98828125 C-61.62922338 79.4078411 -59.64810515 75.71563975 -57.63989258 72.00024414 C-54.89036328 66.96987857 -52.00228632 62.02054009 -49.125 57.0625 C-47.80280444 54.77897916 -46.48100545 52.49523663 -45.16015625 50.2109375 C-44.82155075 49.62545639 -44.48294525 49.03997528 -44.13407898 48.43675232 C-41.65558103 44.14648408 -39.19640261 39.84548383 -36.74609375 35.5390625 C-36.21949158 34.6142231 -36.21949158 34.6142231 -35.68225098 33.67070007 C-33.99588238 30.70851437 -32.31180349 27.7450888 -30.63134766 24.77954102 C-27.38907442 19.08216282 -24.10071373 13.41398764 -20.71484375 7.80078125 C-20.07538818 6.73641846 -19.43593262 5.67205566 -18.77709961 4.57543945 C-17 2 -17 2 -14 0 C-8.96439242 -0.90806038 -5.04521074 -1.13517242 0 0 Z M-47.5078125 100.15625 C-50.21358331 103.49950608 -52.1661287 107.12325002 -54 111 C-54.309375 111.64839844 -54.61875 112.29679687 -54.9375 112.96484375 C-59.4144491 123.4899789 -58.74460878 135.54504911 -54.84375 146.140625 C-49.16403361 158.44667719 -39.92046984 168.27150127 -27.08984375 173.09375 C-14.14604639 176.77736032 -1.20625666 175.97956781 10.72265625 169.52734375 C21.62529838 162.39934124 29.48748182 152.7988209 32.7421875 140.10546875 C35.29723047 127.31275362 33.41775348 115.90248447 26.78125 104.59765625 C19.73117212 94.31629268 9.22115839 86.74749266 -3 84 C-21.32510969 82.22639424 -34.60013184 86.56921773 -47.5078125 100.15625 Z " fill="#367497" transform="translate(112,1)"/>
<path d="M0 0 C-2.24093814 2.36149494 -4.63071713 4.25967118 -7.25 6.1875 C-14.36009785 11.69060013 -19.53045229 17.67659009 -23 26 C-23.391875 26.928125 -23.78375 27.85625 -24.1875 28.8125 C-27.41668878 41.48085597 -26.03648492 53.72453722 -19.75390625 65.21484375 C-13.39802954 75.3078061 -4.72383612 82.64759266 6.875 85.9375 C20.11171956 88.6702421 32.85343945 87.34674471 44.3125 79.8125 C55.32845625 71.3895854 61.69736638 61.26086284 63.71875 47.48046875 C65.05740066 35.67431363 61.63996538 24.77174043 55 15 C50.44414016 9.34681478 45.23181253 5.62511325 38.90625 2.12890625 C38.2771875 1.75636719 37.648125 1.38382812 37 1 C37 0.67 37 0.34 37 0 C51.46284212 1.47580022 62.53779467 10.50312671 72 21 C72.57621094 21.63550781 73.15242188 22.27101563 73.74609375 22.92578125 C80.89391389 31.59599425 86.73172611 45.26493201 86.375 56.61328125 C83.96253361 71.96762462 74.44075226 86.26340909 62.5546875 96.00390625 C47.32085657 107.05917854 28.83569826 113.30062841 9.92041016 110.71582031 C-8.7314479 107.51050216 -25.6393151 98.49433169 -37 83 C-43.58635235 73.29526851 -50.23183563 60.16157718 -49 48 C-48.04838338 46.63171509 -47.04423148 45.2989836 -46 44 C-45.34612877 42.47874858 -44.74377023 40.9345887 -44.1875 39.375 C-37.38185147 21.92593121 -24.32566661 9.34639606 -7.76171875 1.03125 C-4.951327 -0.01817492 -2.96946319 -0.21635433 0 0 Z " fill="#B68C4A" transform="translate(81,88)"/>
<path d="M0 0 C-2.24093814 2.36149494 -4.63071713 4.25967118 -7.25 6.1875 C-16.3189668 13.20673284 -21.71138694 21.03795648 -25 32 C-25.66 32 -26.32 32 -27 32 C-32.23831568 47.90202976 -31.62821555 64.96472966 -24.50390625 80.19921875 C-23.07982427 82.8591624 -21.58728383 85.43494934 -20 88 C-19.505 88.88300781 -19.01 89.76601562 -18.5 90.67578125 C-16.52250583 93.73986727 -14.06055836 95.06372838 -11 97 C-9.66666667 98.33333333 -8.33333333 99.66666667 -7 101 C-6.01 101.33 -5.02 101.66 -4 102 C-4 102.66 -4 103.32 -4 104 C-0.99049877 105.61725534 1.97103608 106.67582623 5.25 107.625 C6.14203125 107.88539063 7.0340625 108.14578125 7.953125 108.4140625 C8.62859375 108.60742188 9.3040625 108.80078125 10 109 C3.92956128 111.45597903 -4.24863629 107.33522163 -10 105 C-26.80125509 96.65476121 -39.89017453 83.2076005 -46.2890625 65.44921875 C-50.03172285 52.55554819 -47.76166077 43.93107518 -41.4296875 32.0546875 C-33.50865294 19.12313806 -17.01409081 -1.23964232 0 0 Z " fill="#DAAB53" transform="translate(81,88)"/>
<path d="M0 0 C14.46284212 1.47580022 25.53779467 10.50312671 35 21 C35.57621094 21.63550781 36.15242188 22.27101563 36.74609375 22.92578125 C43.89391389 31.59599425 49.73172611 45.26493201 49.375 56.61328125 C46.96253361 71.96762462 37.44075226 86.26340909 25.5546875 96.00390625 C17.28300323 102.0067116 9.08613599 106.21052426 -1 108 C3.06067183 103.40967532 8.51978258 99.50052853 14.15625 97.0703125 C16.49637204 95.71185183 16.91908414 94.44341485 18 92 C18.93643027 90.77461411 19.89619421 89.56681016 20.875 88.375 C30.09029784 76.15520116 32.45251144 58.90735426 31 44 C30.02219766 38.89918993 28.57205923 33.94777571 27 29 C26.34 29 25.68 29 25 29 C24.5875 28.0821875 24.175 27.164375 23.75 26.21875 C18.56136272 15.03994145 12.87713158 8.19263146 1.90625 2.12890625 C1.2771875 1.75636719 0.648125 1.38382812 0 1 C0 0.67 0 0.34 0 0 Z " fill="#D7A84F" transform="translate(118,88)"/>
<path d="M0 0 C1.08784335 3.31395986 1.07262544 3.83580335 -0.4375 7.25 C-0.953125 8.1575 -1.46875 9.065 -2 10 C-2.66 10 -3.32 10 -4 10 C-4.66 12.31 -5.32 14.62 -6 17 C-6.66 17 -7.32 17 -8 17 C-8.185625 17.8353125 -8.185625 17.8353125 -8.375 18.6875 C-9.05976855 21.22114364 -9.99133763 23.57921032 -11 26 C-11.66 26 -12.32 26 -13 26 C-13.28875 26.721875 -13.5775 27.44375 -13.875 28.1875 C-14.91666667 30.79166667 -15.95833333 33.39583333 -17 36 C-17.66 36 -18.32 36 -19 36 C-19.309375 36.94875 -19.61875 37.8975 -19.9375 38.875 C-21 42 -21 42 -22 44 C-21.34 44.33 -20.68 44.66 -20 45 C-20.66 45.99 -21.32 46.98 -22 48 C-22 48.66 -22 49.32 -22 50 C-22.31478446 51.33783393 -22.64587656 52.67203709 -23 54 C-23.99 54 -24.98 54 -26 54 C-28.35785318 54.89335797 -28.35785318 54.89335797 -29.125 58.0625 C-29.558125 59.5165625 -29.558125 59.5165625 -30 61 C-29.34 61.66 -28.68 62.32 -28 63 C-26.329375 62.505 -26.329375 62.505 -24.625 62 C-21 61 -21 61 -19 61 C-18.79375 60.401875 -18.5875 59.80375 -18.375 59.1875 C-16.43871707 56.10704989 -14.34825071 55.31303949 -11 54 C-9.33378384 53.96125079 -7.66605828 53.9549714 -6 54 C-5.01 53.34 -4.02 52.68 -3 52 C-1.125 51.69140625 -1.125 51.69140625 1 51.5625 C4.63203344 51.24565056 7.83154348 50.51553863 11.3125 49.4375 C20.31707251 46.9092452 28.7781348 47.79080694 37.875 49.3125 C38.58865723 49.42996582 39.30231445 49.54743164 40.03759766 49.66845703 C44.45880401 50.48127802 48.08214584 51.8077211 52 54 C52 54.66 52 55.32 52 56 C47.84206324 55.35888101 43.82907878 54.4572697 39.75 53.4375 C33.96394841 52.18313813 28.47970161 51.70273795 22.5625 51.6875 C21.44536621 51.67964478 21.44536621 51.67964478 20.30566406 51.67163086 C15.55513204 51.73183836 11.56238738 52.56298457 7 54 C5.41967444 54.26835717 3.83639764 54.52024586 2.25 54.75 C-12.67948769 57.67246421 -24.99313636 69.49862935 -33.72265625 81.3359375 C-38.27567664 88.34595866 -40.6075528 96.06046283 -43 104 C-45.82928562 101.17071438 -45.33363424 99.27120311 -45.375 95.3125 C-45.27912243 78.42376802 -38.15801925 63.7681333 -28.87109375 49.98828125 C-26.64507843 46.43316283 -24.67771987 42.76853893 -22.68383789 39.0793457 C-19.7132742 33.64687944 -16.6007082 28.29640075 -13.5 22.9375 C-12.86191406 21.83083984 -12.22382812 20.72417969 -11.56640625 19.58398438 C-7.7732351 13.01768708 -3.92689417 6.48723648 0 0 Z " fill="#2F6185" transform="translate(77,34)"/>
<path d="M0 0 C3.99074522 2.3172069 5.70666582 5.54289643 7.375 9.75 C9.18368341 13.65675616 10.18484016 14.2277055 13.9375 16.125 C16.02195432 16.85095592 18.12863561 17.51526652 20.25 18.125 C25.24412305 19.60053636 30.09087107 21.2243612 34.9375 23.125 C33.52712965 20.7496394 32.11119616 18.38831331 30.58984375 16.08203125 C30.12707031 15.37433594 29.66429687 14.66664062 29.1875 13.9375 C28.51460937 12.92623047 28.51460937 12.92623047 27.828125 11.89453125 C27.53421875 11.31058594 27.2403125 10.72664063 26.9375 10.125 C27.2675 9.465 27.5975 8.805 27.9375 8.125 C31.22613525 11.14502707 33.39946526 14.26290066 35.625 18.125 C36.22699219 19.15625 36.82898438 20.1875 37.44921875 21.25 C38.67790313 23.62352153 39.46775268 25.51946819 39.9375 28.125 C36.71700085 27.72243761 34.57249402 26.92845832 31.6875 25.375 C26.72906091 22.73367764 21.36115313 21.45724466 15.92871094 20.13964844 C9.75334272 18.50310616 7.63033266 15.89913965 4.3046875 10.44921875 C3.30305067 8.67931074 2.30307206 6.90846336 1.3046875 5.13671875 C0.85351562 4.47285156 0.40234375 3.80898438 -0.0625 3.125 C-0.7225 3.125 -1.3825 3.125 -2.0625 3.125 C-3.29216881 4.68949589 -3.29216881 4.68949589 -4.4453125 6.73828125 C-4.89003906 7.49173828 -5.33476563 8.24519531 -5.79296875 9.02148438 C-6.25316406 9.81876953 -6.71335937 10.61605469 -7.1875 11.4375 C-7.65542969 12.22318359 -8.12335938 13.00886719 -8.60546875 13.81835938 C-11.30846415 18.17502192 -11.30846415 18.17502192 -12.0625 23.125 C-11.44955078 23.12910889 -10.83660156 23.13321777 -10.20507812 23.13745117 C12.7662437 23.40590809 31.13270328 27.43782134 48.109375 44.10546875 C62.64384493 59.14775767 67.29385934 76.22328465 67.0078125 96.5390625 C66.98460937 97.72242188 66.96140625 98.90578125 66.9375 100.125 C66.2775 100.125 65.6175 100.125 64.9375 100.125 C64.64617187 99.08601563 64.35484375 98.04703125 64.0546875 96.9765625 C58.0285236 76.16254245 46.40544985 63.12093481 27.9375 52.125 C30.72573655 51.0923198 31.8052274 51.07990707 34.6875 52.0625 C35.80125 52.5884375 35.80125 52.5884375 36.9375 53.125 C36.9375 53.785 36.9375 54.445 36.9375 55.125 C38.5875 55.125 40.2375 55.125 41.9375 55.125 C41.9375 55.785 41.9375 56.445 41.9375 57.125 C42.9275 57.125 43.9175 57.125 44.9375 57.125 C45.4325 59.6 45.4325 59.6 45.9375 62.125 C47.2575 62.125 48.5775 62.125 49.9375 62.125 C50.2675 60.145 50.5975 58.165 50.9375 56.125 C52.4225 57.115 52.4225 57.115 53.9375 58.125 C51.81630087 53.11125661 48.444305 49.12953667 43.9375 46.125 C42.94797748 45.02733294 41.99120211 43.89958261 41.0625 42.75 C36.98896812 37.91393506 32.77304134 34.66219189 26.9375 32.125 C25.9475 32.125 24.9575 32.125 23.9375 32.125 C23.9375 31.465 23.9375 30.805 23.9375 30.125 C14.32316812 27.13929928 4.9949483 26.67327122 -5.00976562 26.41625977 C-6.02103516 26.38975342 -7.03230469 26.36324707 -8.07421875 26.3359375 C-8.98647217 26.31837402 -9.89872559 26.30081055 -10.83862305 26.28271484 C-13.0625 26.125 -13.0625 26.125 -15.0625 25.125 C-15.6122272 19.49029617 -14.01297835 16.73512242 -11.0625 12.125 C-10.4025 12.125 -9.7425 12.125 -9.0625 12.125 C-8.835625 11.073125 -8.60875 10.02125 -8.375 8.9375 C-7.1627253 4.71603277 -4.82713628 0.29255371 0 0 Z " fill="#285478" transform="translate(101.0625,38.875)"/>
<path d="M0 0 C0.02529705 6.51447727 0.04284444 13.02894193 0.05493164 19.54345703 C0.05996909 21.76090976 0.06679922 23.97835916 0.07543945 26.19580078 C0.08753072 29.37793805 0.0932341 32.56003151 0.09765625 35.7421875 C0.10281754 36.73805878 0.10797882 37.73393005 0.11329651 38.75997925 C0.11337204 39.68078278 0.11344757 40.6015863 0.11352539 41.55029297 C0.115746 42.3630368 0.11796661 43.17578064 0.12025452 44.01315308 C0 46 0 46 -1 48 C-2.97909398 48.02686553 -4.95828971 48.04633375 -6.9375 48.0625 C-8.03964844 48.07410156 -9.14179687 48.08570313 -10.27734375 48.09765625 C-13 48 -13 48 -14 47 C-14.09268999 45.64905018 -14.11747326 44.29332909 -14.11352539 42.93920898 C-14.11344986 42.07839218 -14.11337433 41.21757538 -14.11329651 40.33067322 C-14.10813522 39.39526199 -14.10297394 38.45985077 -14.09765625 37.49609375 C-14.0962413 36.54307877 -14.09482635 35.59006378 -14.09336853 34.60816956 C-14.08775152 31.55124835 -14.07519616 28.49439923 -14.0625 25.4375 C-14.05748719 23.37044376 -14.05292391 21.30338638 -14.04882812 19.23632812 C-14.03777656 14.15752412 -14.02050055 9.0787743 -14 4 C-12.42466914 3.13116294 -10.83935491 2.28040932 -9.25 1.4375 C-8.36828125 0.96183594 -7.4865625 0.48617187 -6.578125 -0.00390625 C-3.7041635 -1.11430047 -2.84099621 -0.86866892 0 0 Z " fill="#4694B7" transform="translate(128,104)"/>
<path d="M0 0 C0.02464928 5.25105442 0.04283568 10.50207545 0.05493164 15.75317383 C0.05997218 17.54094021 0.06680454 19.32870245 0.07543945 21.11645508 C0.0875173 23.68051168 0.09323094 26.24451397 0.09765625 28.80859375 C0.10281754 29.6127623 0.10797882 30.41693085 0.11329651 31.24546814 C0.11349215 33.16401715 0.06201983 35.08245368 0 37 C-1 38 -1 38 -3.6875 38.1328125 C-4.780625 38.13023437 -5.87375 38.12765625 -7 38.125 C-8.093125 38.12757813 -9.18625 38.13015625 -10.3125 38.1328125 C-13 38 -13 38 -14 37 C-14.13799854 34.58683379 -14.21305611 32.20424512 -14.23828125 29.7890625 C-14.246353 29.06512299 -14.25442474 28.34118347 -14.26274109 27.5953064 C-14.27659495 26.06030685 -14.28731127 24.52527634 -14.29516602 22.99023438 C-14.3123803 20.6413336 -14.35625094 18.29383988 -14.40039062 15.9453125 C-14.41051716 14.45573954 -14.41903339 12.96615459 -14.42578125 11.4765625 C-14.44328934 10.77334869 -14.46079742 10.07013489 -14.47883606 9.34561157 C-14.46456379 6.13933658 -14.44822268 4.46042043 -12.16088867 2.11083984 C-7.83138457 -0.11481191 -4.73440311 -1.4284837 0 0 Z " fill="#4487A8" transform="translate(107,114)"/>
<path d="M0 0 C0.02465746 4.1117256 0.04283959 8.22342278 0.05493164 12.33520508 C0.0599708 13.73495228 0.06680216 15.1346942 0.07543945 16.53442383 C0.0875232 18.54245777 0.09269807 20.55052957 0.09765625 22.55859375 C0.10289307 23.76829834 0.10812988 24.97800293 0.11352539 26.22436523 C0 29 0 29 -1 30 C-5.33530918 30.14393457 -9.66157731 30.04212061 -14 30 C-14 21.75 -14 13.5 -14 5 C-3 0 -3 0 0 0 Z " fill="#3F85A7" transform="translate(86,122)"/>
<path d="M0 0 C3.99074522 2.3172069 5.70666582 5.54289643 7.375 9.75 C9.18368341 13.65675616 10.18484016 14.2277055 13.9375 16.125 C16.02195432 16.85095592 18.12863561 17.51526652 20.25 18.125 C25.24412305 19.60053636 30.09087107 21.2243612 34.9375 23.125 C33.52712965 20.7496394 32.11119616 18.38831331 30.58984375 16.08203125 C30.12707031 15.37433594 29.66429687 14.66664062 29.1875 13.9375 C28.51460937 12.92623047 28.51460937 12.92623047 27.828125 11.89453125 C27.53421875 11.31058594 27.2403125 10.72664063 26.9375 10.125 C27.2675 9.465 27.5975 8.805 27.9375 8.125 C31.22613525 11.14502707 33.39946526 14.26290066 35.625 18.125 C36.22699219 19.15625 36.82898438 20.1875 37.44921875 21.25 C38.67790313 23.62352153 39.46775268 25.51946819 39.9375 28.125 C36.71700085 27.72243761 34.57249402 26.92845832 31.6875 25.375 C26.72906091 22.73367764 21.36115313 21.45724466 15.92871094 20.13964844 C9.75334272 18.50310616 7.63033266 15.89913965 4.3046875 10.44921875 C3.30305067 8.67931074 2.30307206 6.90846336 1.3046875 5.13671875 C0.85351562 4.47285156 0.40234375 3.80898438 -0.0625 3.125 C-0.7225 3.125 -1.3825 3.125 -2.0625 3.125 C-3.29216881 4.68949589 -3.29216881 4.68949589 -4.4453125 6.73828125 C-4.89003906 7.49173828 -5.33476563 8.24519531 -5.79296875 9.02148438 C-6.25316406 9.81876953 -6.71335937 10.61605469 -7.1875 11.4375 C-7.65542969 12.22318359 -8.12335938 13.00886719 -8.60546875 13.81835938 C-11.30846415 18.17502192 -11.30846415 18.17502192 -12.0625 23.125 C-11.44955078 23.12910889 -10.83660156 23.13321777 -10.20507812 23.13745117 C15.11931542 23.43340753 32.6148497 29.15970636 50.9375 47.125 C50.6075 48.445 50.2775 49.765 49.9375 51.125 C49.504375 50.67125 49.07125 50.2175 48.625 49.75 C46.82951658 47.92475666 46.82951658 47.92475666 43.9375 46.125 C42.94797748 45.02733294 41.99120211 43.89958261 41.0625 42.75 C36.98896812 37.91393506 32.77304134 34.66219189 26.9375 32.125 C25.9475 32.125 24.9575 32.125 23.9375 32.125 C23.9375 31.465 23.9375 30.805 23.9375 30.125 C14.32316812 27.13929928 4.9949483 26.67327122 -5.00976562 26.41625977 C-6.02103516 26.38975342 -7.03230469 26.36324707 -8.07421875 26.3359375 C-8.98647217 26.31837402 -9.89872559 26.30081055 -10.83862305 26.28271484 C-13.0625 26.125 -13.0625 26.125 -15.0625 25.125 C-15.6122272 19.49029617 -14.01297835 16.73512242 -11.0625 12.125 C-10.4025 12.125 -9.7425 12.125 -9.0625 12.125 C-8.835625 11.073125 -8.60875 10.02125 -8.375 8.9375 C-7.1627253 4.71603277 -4.82713628 0.29255371 0 0 Z " fill="#365E77" transform="translate(101.0625,38.875)"/>
<path d="M0 0 C-2.24093814 2.36149494 -4.63071713 4.25967118 -7.25 6.1875 C-16.3189668 13.20673284 -21.71138694 21.03795648 -25 32 C-25.66 32 -26.32 32 -27 32 C-27.66 34.97 -28.32 37.94 -29 41 C-29.66 41 -30.32 41 -31 41 C-30.86980469 40.41992188 -30.73960938 39.83984375 -30.60546875 39.2421875 C-29.68390047 34.51940766 -29.68390047 34.51940766 -31.046875 30.06640625 C-32.56157693 28.23522874 -32.56157693 28.23522874 -35 26 C-36.32 27.32 -37.64 28.64 -39 30 C-37.57044172 25.58209956 -35.18213219 22.53293414 -32.0625 19.1875 C-31.57595947 18.66341553 -31.08941895 18.13933105 -30.58813477 17.59936523 C-23.06598458 9.71181544 -11.55062489 -0.65303886 0 0 Z " fill="#C89D4C" transform="translate(81,88)"/>
<path d="M0 0 C0.6875 1.6875 0.6875 1.6875 1 4 C0.03567924 5.68756133 -0.9731657 7.3497306 -2 9 C-4.40333396 14.76126318 -5.94697019 20.7292251 -6 27 C-5.67 27.66 -5.34 28.32 -5 29 C-4.960008 30.99960012 -4.95653201 33.00047242 -5 35 C-4.01 35.33 -3.02 35.66 -2 36 C-1.87625 36.969375 -1.7525 37.93875 -1.625 38.9375 C-1.41875 39.948125 -1.2125 40.95875 -1 42 C-0.34 42.33 0.32 42.66 1 43 C1 43.99 1 44.98 1 46 C1.66 46.33 2.32 46.66 3 47 C3.95446378 48.17870527 4.86529541 49.39307264 5.75 50.625 C10.00549485 56.40253315 14.17615083 61.71775796 20 66 C20.99 65.01 20.99 65.01 22 64 C25.36144176 64.33131253 27.1401945 65.74568437 29.5625 68 C31.84887208 70.11833137 32.96753059 70.98917686 36 72 C36 72.66 36 73.32 36 74 C39.00950123 75.61725534 41.97103608 76.67582623 45.25 77.625 C46.14203125 77.88539063 47.0340625 78.14578125 47.953125 78.4140625 C48.62859375 78.60742188 49.3040625 78.80078125 50 79 C43.92956128 81.45597903 35.75136371 77.33522163 30 75 C13.19874491 66.65476121 0.10982547 53.2076005 -6.2890625 35.44921875 C-9.01882428 26.04503944 -9.08899839 20.64237457 -5.625 11.5625 C-5.20476563 10.45003906 -4.78453125 9.33757812 -4.3515625 8.19140625 C-3.11207856 5.26464794 -1.70905664 2.67352428 0 0 Z " fill="#C5AB76" transform="translate(41,118)"/>
<path d="M0 0 C0.71365723 0.11746582 1.42731445 0.23493164 2.16259766 0.35595703 C6.58380401 1.16877802 10.20714584 2.4952211 14.125 4.6875 C14.125 5.3475 14.125 6.0075 14.125 6.6875 C9.96706324 6.04638101 5.95407878 5.1447697 1.875 4.125 C-3.91105159 2.87063813 -9.39529839 2.39023795 -15.3125 2.375 C-16.05725586 2.36976318 -16.80201172 2.36452637 -17.56933594 2.35913086 C-22.31986796 2.41933836 -26.31261262 3.25048457 -30.875 4.6875 C-32.45532556 4.95585717 -34.03860236 5.20774586 -35.625 5.4375 C-44.6448073 7.20313754 -51.99096041 12.45126181 -59 18.171875 C-60.875 19.6875 -60.875 19.6875 -63.875 21.6875 C-63.875 20.6975 -63.875 19.7075 -63.875 18.6875 C-64.535 18.3575 -65.195 18.0275 -65.875 17.6875 C-64.885 17.0275 -63.895 16.3675 -62.875 15.6875 C-61.885 16.0175 -60.895 16.3475 -59.875 16.6875 C-59.545 15.0375 -59.215 13.3875 -58.875 11.6875 C-58.215 11.6875 -57.555 11.6875 -56.875 11.6875 C-56.66875 11.089375 -56.4625 10.49125 -56.25 9.875 C-54.31371707 6.79454989 -52.22325071 6.00053949 -48.875 4.6875 C-47.20878384 4.64875079 -45.54105828 4.6424714 -43.875 4.6875 C-42.885 4.0275 -41.895 3.3675 -40.875 2.6875 C-39 2.37890625 -39 2.37890625 -36.875 2.25 C-33.24296656 1.93315056 -30.04345652 1.20303863 -26.5625 0.125 C-17.55792749 -2.4032548 -9.0968652 -1.52169306 0 0 Z " fill="#3E5C6E" transform="translate(114.875,83.3125)"/>
<path d="M0 0 C7.88660876 11.82991314 7.20382928 27.9625081 4.625 41.3125 C3.30434783 47.69565217 3.30434783 47.69565217 1 50 C0.505 48.515 0.505 48.515 0 47 C-0.66 46.67 -1.32 46.34 -2 46 C-4.20055765 41.94634118 -4.10473806 39.41895224 -3 35 C-2.50120821 33.66621421 -2.00108187 32.33292713 -1.5 31 C1.13565458 23.40311328 1.758129 14.83887593 0 7 C-0.03824623 4.66698014 -0.04574284 2.33288492 0 0 Z " fill="#916D34" transform="translate(144,114)"/>
<path d="M0 0 C0.33 0 0.66 0 1 0 C0.96519531 1.07314453 0.96519531 1.07314453 0.9296875 2.16796875 C0.71541495 13.99887466 1.80190282 23.85946314 7.5625 34.34375 C8.91896009 36.85025234 9.98065204 39.34241424 11 42 C11.33 42.66 11.66 43.32 12 44 C11.443125 43.71125 10.88625 43.4225 10.3125 43.125 C8.00793602 41.91074456 8.00793602 41.91074456 5.375 41.3125 C3 40 3 40 1.6875 36.375 C1.460625 35.26125 1.23375 34.1475 1 33 C0.31292445 35.49064888 0 37.37886292 0 40 C-0.66 40 -1.32 40 -2 40 C-5.67285247 27.60412292 -5.38921246 13.1669879 -1 1 C-0.67 0.67 -0.34 0.34 0 0 Z " fill="#97794C" transform="translate(54,119)"/>
<path d="M0 0 C2.64 0 5.28 0 8 0 C8.12375 1.03125 8.2475 2.0625 8.375 3.125 C8.93889814 6.62116846 9.78682059 9.68397627 11 13 C9.68 13.33 8.36 13.66 7 14 C6.67 12.02 6.34 10.04 6 8 C0.98886765 9.4317521 -0.94469549 11.98445693 -4 16 C-3.34 16.33 -2.68 16.66 -2 17 C-2.66 17.99 -3.32 18.98 -4 20 C-5.32 19.34 -6.64 18.68 -8 18 C-8.144375 18.5775 -8.28875 19.155 -8.4375 19.75 C-8.623125 20.4925 -8.80875 21.235 -9 22 C-9.103125 22.680625 -9.20625 23.36125 -9.3125 24.0625 C-10.26044942 26.73399382 -11.55710078 27.63485043 -14 29 C-14.99 28.67 -15.98 28.34 -17 28 C-15.0188503 24.32286609 -13.01225934 20.66019383 -11 17 C-10.66307129 16.37996094 -10.32614258 15.75992187 -9.97900391 15.12109375 C-8.93282666 13.20043455 -7.87393562 11.2872611 -6.8125 9.375 C-6.47992188 8.75931152 -6.14734375 8.14362305 -5.8046875 7.50927734 C-3.34181376 3.11393792 -3.34181376 3.11393792 0 2 C0 1.34 0 0.68 0 0 Z " fill="#4391B5" transform="translate(98,3)"/>
<path d="M0 0 C14.40876301 1.47028194 25.61919242 10.47319498 35 21 C37.10462341 23.60032314 39.10556534 26.24305851 41 29 C40.67 29.66 40.34 30.32 40 31 C39.60167969 30.51789063 39.20335937 30.03578125 38.79296875 29.5390625 C38.26316406 28.90742187 37.73335937 28.27578125 37.1875 27.625 C36.40439453 26.68527344 36.40439453 26.68527344 35.60546875 25.7265625 C33.91774261 23.7778952 33.91774261 23.7778952 31 22 C31.33 21.34 31.66 20.68 32 20 C31.030625 19.690625 30.06125 19.38125 29.0625 19.0625 C26 18 26 18 25 17 C25.33 20.96 25.66 24.92 26 29 C24.21184564 26.31776845 22.82473574 23.68362469 21.375 20.8125 C16.60755532 12.08370031 10.54877109 6.90572137 1.90625 2.12890625 C1.2771875 1.75636719 0.648125 1.38382812 0 1 C0 0.67 0 0.34 0 0 Z " fill="#CB9D4A" transform="translate(118,88)"/>
<path d="M0 0 C2.32175766 5.90597104 -1.64974635 12.53740551 -4 18 C-11.90735451 33.0905206 -24.17511234 44.60004543 -40 51 C-43.00242472 51.85656099 -45.91936221 52.45343523 -49 53 C-45.53005564 49.0963126 -41.44775994 46.63411025 -37 44 C-36.34 44.66 -35.68 45.32 -35 46 C-32.90708843 45.91428339 -32.90708843 45.91428339 -31 45 C-30.67 44.01 -30.34 43.02 -30 42 C-29.030625 41.690625 -28.06125 41.38125 -27.0625 41.0625 C-23.92701268 40.35230901 -23.92701268 40.35230901 -22.9375 38.125 C-22.628125 37.42375 -22.31875 36.7225 -22 36 C-21.2575 35.4225 -20.515 34.845 -19.75 34.25 C-16.13707081 31.29396703 -13.16511844 28.167853 -11 24 C-10.79687267 21.30348472 -11.22967227 19.64112363 -12 17 C-10.35 17 -8.7 17 -7 17 C-6.01 14.69 -5.02 12.38 -4 10 C-3.34 10 -2.68 10 -2 10 C-2.04125 8.906875 -2.0825 7.81375 -2.125 6.6875 C-2 3 -2 3 0 0 Z " fill="#C9A96C" transform="translate(166,143)"/>
<path d="M0 0 C2 2 2 2 2.4375 4.3125 C1.82133327 8.09752418 -0.26270055 9.3900168 -3 12 C-3.515625 13.03125 -4.03125 14.0625 -4.5625 15.125 C-6.04390787 18.08781574 -7.22623835 19.27835484 -10 21 C-10.66 20.67 -11.32 20.34 -12 20 C-14.5875622 20.47164455 -14.5875622 20.47164455 -17.4375 21.3125 C-18.40558594 21.57675781 -19.37367187 21.84101563 -20.37109375 22.11328125 C-23.18466411 22.93556319 -23.18466411 22.93556319 -26 25 C-28.20483398 25.25878906 -28.20483398 25.25878906 -30.74609375 25.265625 C-32.12571289 25.26949219 -32.12571289 25.26949219 -33.53320312 25.2734375 C-34.49162109 25.26570313 -35.45003906 25.25796875 -36.4375 25.25 C-37.39205078 25.25773437 -38.34660156 25.26546875 -39.33007812 25.2734375 C-40.25111328 25.27085937 -41.17214844 25.26828125 -42.12109375 25.265625 C-42.9608374 25.26336914 -43.80058105 25.26111328 -44.66577148 25.25878906 C-47 25 -47 25 -51 23 C-44.73 23.33 -38.46 23.66 -32 24 C-32 23.34 -32 22.68 -32 22 C-31.17757812 21.79246094 -30.35515625 21.58492187 -29.5078125 21.37109375 C-17.10668314 17.94861117 -8.90132497 12.12937483 -1 2 C-0.67 1.34 -0.34 0.68 0 0 Z " fill="#A28151" transform="translate(139,153)"/>
<path d="M0 0 C3.02419525 0.58803797 6.01758453 1.22678118 9 2 C9 2.66 9 3.32 9 4 C10.65 4 12.3 4 14 4 C14 4.66 14 5.32 14 6 C14.99 6 15.98 6 17 6 C17.33 7.65 17.66 9.3 18 11 C19.32 11 20.64 11 22 11 C22.33 9.02 22.66 7.04 23 5 C25.97492003 5.59498401 27.61871235 6.49195996 29.4453125 8.92578125 C32.05305189 13.35893822 33.67648509 16.7234163 33 22 C31.35 22.33 29.7 22.66 28 23 C27.95875 22.38125 27.9175 21.7625 27.875 21.125 C27.441875 20.073125 27.441875 20.073125 27 19 C26.154375 18.7525 25.30875 18.505 24.4375 18.25 C20.87465714 16.95442078 19.91930558 16.07764421 17.4375 13.375 C13.03672271 8.68255326 8.07894125 5.76970338 2.5625 2.56640625 C1.716875 2.04949219 0.87125 1.53257813 0 1 C0 0.67 0 0.34 0 0 Z " fill="#2C5A7A" transform="translate(129,90)"/>
<path d="M0 0 C1.71056541 2.58430745 2.05220752 3.68321539 1.5390625 6.796875 C1.23742188 7.77140625 0.93578125 8.7459375 0.625 9.75 C0.32851563 10.73484375 0.03203125 11.7196875 -0.2734375 12.734375 C-0.51320312 13.48203125 -0.75296875 14.2296875 -1 15 C-0.34 15 0.32 15 1 15 C1.33 12.03 1.66 9.06 2 6 C3.65 5.67 5.3 5.34 7 5 C7.33 3.68 7.66 2.36 8 1 C9.98 0.67 11.96 0.34 14 0 C13.63648437 0.52207031 13.27296875 1.04414062 12.8984375 1.58203125 C6.28915537 11.25869816 1.34195861 20.73563363 -2 32 C-5.10794186 28.89205814 -4.37059152 25.5588939 -4.37890625 21.32202148 C-4.22319981 13.87022968 -2.24720257 7.0726688 0 0 Z " fill="#30526B" transform="translate(36,106)"/>
<path d="M0 0 C0.33 0 0.66 0 1 0 C2.96491228 22.07017544 2.96491228 22.07017544 1 26 C-0.97909398 26.02686553 -2.95828971 26.04633375 -4.9375 26.0625 C-6.03964844 26.07410156 -7.14179687 26.08570313 -8.27734375 26.09765625 C-11 26 -11 26 -12 25 C-12.07313567 22.46950598 -12.09247527 19.96695163 -12.0625 17.4375 C-12.05798828 16.72658203 -12.05347656 16.01566406 -12.04882812 15.28320312 C-12.03700864 13.52209987 -12.01907263 11.76103964 -12 10 C-11.34 10 -10.68 10 -10 10 C-10 12.64 -10 15.28 -10 18 C-9.2575 17.95875 -8.515 17.9175 -7.75 17.875 C-4.91241048 18.00398134 -3.41226062 18.57051222 -1 20 C-1.20625 19.113125 -1.4125 18.22625 -1.625 17.3125 C-2.50041992 11.508346 -1.03862268 5.70813289 0 0 Z " fill="#397898" transform="translate(126,126)"/>
<path d="M0 0 C0.78375 0.474375 1.5675 0.94875 2.375 1.4375 C3.88948678 2.33898023 5.4235897 3.21179485 7 4 C7 4.66 7 5.32 7 6 C7.804375 6.598125 8.60875 7.19625 9.4375 7.8125 C12.29710802 10.2536288 12.6953187 11.34382438 13 15 C12.195625 15.12375 11.39125 15.2475 10.5625 15.375 C9.716875 15.58125 8.87125 15.7875 8 16 C7.67 16.66 7.34 17.32 7 18 C7.66 18 8.32 18 9 18 C9 20.64 9 23.28 9 26 C8.34 26 7.68 26 7 26 C7 25.34 7 24.68 7 24 C6.34 24 5.68 24 5 24 C4.18305769 21.29293656 3.37133506 18.58448604 2.5625 15.875 C2.33240234 15.11445312 2.10230469 14.35390625 1.86523438 13.5703125 C0.62751259 9.40869721 -0.52098283 5.33139467 -1 1 C-0.67 0.67 -0.34 0.34 0 0 Z " fill="#D9A03B" transform="translate(143,104)"/>
<path d="M0 0 C0.02465746 4.1117256 0.04283959 8.22342278 0.05493164 12.33520508 C0.0599708 13.73495228 0.06680216 15.1346942 0.07543945 16.53442383 C0.0875232 18.54245777 0.09269807 20.55052957 0.09765625 22.55859375 C0.10289307 23.76829834 0.10812988 24.97800293 0.11352539 26.22436523 C0 29 0 29 -1 30 C-5.33530918 30.14393457 -9.66157731 30.04212061 -14 30 C-14 21.75 -14 13.5 -14 5 C-3 0 -3 0 0 0 Z M-12 6 C-12 13.26 -12 20.52 -12 28 C-8.7 28 -5.4 28 -2 28 C-1.3533402 19.98603754 -0.83322777 12.04212755 -1 4 C-5.6012181 1.97546404 -6.64181412 3.70363462 -12 6 Z " fill="#416B85" transform="translate(86,122)"/>
<path d="M0 0 C0 11.55 0 23.1 0 35 C-0.33 35 -0.66 35 -1 35 C-2.12520495 23.98906587 -2.09920291 13.05561292 -2 2 C-6.95 3.485 -6.95 3.485 -12 5 C-12 13.91 -12 22.82 -12 32 C-12.66 32 -13.32 32 -14 32 C-14 22.76 -14 13.52 -14 4 C-4 -1 -4 -1 0 0 Z " fill="#4F849C" transform="translate(128,104)"/>
<path d="M0 0 C0 0.66 0 1.32 0 2 C-0.7734375 2.6496875 -0.7734375 2.6496875 -1.5625 3.3125 C-2.036875 3.869375 -2.51125 4.42625 -3 5 C-2.81931089 7.48823926 -2.81931089 7.48823926 -2 10 C-1.814375 10.763125 -1.62875 11.52625 -1.4375 12.3125 C-1.293125 12.869375 -1.14875 13.42625 -1 14 C-4 13 -4 13 -4.984375 11.2578125 C-5.23703125 10.55398438 -5.4896875 9.85015625 -5.75 9.125 C-6.01296875 8.42632812 -6.2759375 7.72765625 -6.546875 7.0078125 C-7 5 -7 5 -6 2 C-6.763125 2.185625 -7.52625 2.37125 -8.3125 2.5625 C-11 3 -11 3 -14 2 C-14 2.66 -14 3.32 -14 4 C-14.5878125 4.57105469 -15.175625 5.14210938 -15.78125 5.73046875 C-18.37049831 8.37897803 -19.80090576 11.02629727 -21.5 14.3125 C-22.09941406 15.4571875 -22.69882813 16.601875 -23.31640625 17.78125 C-23.87199219 18.8434375 -24.42757812 19.905625 -25 21 C-26.30819128 23.34940474 -27.64839379 25.67523732 -29 28 C-29.99 27.67 -30.98 27.34 -32 27 C-29.76381466 23.05450033 -27.5087385 19.12012507 -25.25 15.1875 C-24.61578125 14.06794922 -23.9815625 12.94839844 -23.328125 11.79492188 C-22.4 10.18520508 -22.4 10.18520508 -21.453125 8.54296875 C-20.88754883 7.55321045 -20.32197266 6.56345215 -19.73925781 5.54370117 C-16.94277837 1.45379111 -15.00241996 0.19401677 -10.125 -0.75 C-6.60183692 -1.08648187 -3.46687096 -0.78004597 0 0 Z " fill="#437693" transform="translate(112,1)"/>
<path d="M0 0 C0.5775 0.185625 1.155 0.37125 1.75 0.5625 C4.20692525 1.04023546 5.64397534 0.75729364 8 0 C7.45144652 4.571279 6.58255197 8.67435795 5 13 C4.34 13 3.68 13 3 13 C2.34 15.97 1.68 18.94 1 22 C0.34 22 -0.32 22 -1 22 C-0.88140625 21.40832031 -0.7628125 20.81664063 -0.640625 20.20703125 C0.32042761 14.88378439 0.32042761 14.88378439 -1.9375 10.125 C-2.618125 9.42375 -3.29875 8.7225 -4 8 C-4 7.01 -4 6.02 -4 5 C-3.34 4.67 -2.68 4.34 -2 4 C-0.86649466 1.98330173 -0.86649466 1.98330173 0 0 Z " fill="#D09D44" transform="translate(51,107)"/>
<path d="M0 0 C2 2 2 2 2 5 C3.98 3.35 5.96 1.7 8 0 C8.66 0.33 9.32 0.66 10 1 C10.625 3.5625 10.625 3.5625 11 6 C8.69 6.33 6.38 6.66 4 7 C4 8.65 4 10.3 4 12 C0.25 13.125 0.25 13.125 -2 12 C-1.979375 13.11375 -1.95875 14.2275 -1.9375 15.375 C-2 19 -2 19 -3 21 C-3.66 21 -4.32 21 -5 21 C-4.85769192 19.58297487 -4.71099254 18.1663904 -4.5625 16.75 C-4.48128906 15.96109375 -4.40007813 15.1721875 -4.31640625 14.359375 C-4.02313783 12.17253398 -3.5434307 10.13490632 -3 8 C-2.855625 6.783125 -2.71125 5.56625 -2.5625 4.3125 C-2.376875 3.219375 -2.19125 2.12625 -2 1 C-1.34 0.67 -0.68 0.34 0 0 Z " fill="#2D597A" transform="translate(40,100)"/>
<path d="M0 0 C0.99 0 1.98 0 3 0 C2.10329926 6.05272999 -2.39882663 9.46063587 -7 13 C-7.515625 13.53625 -8.03125 14.0725 -8.5625 14.625 C-10.22929298 16.21932372 -11.94488277 16.97244139 -14 18 C-14.495 18.515625 -14.99 19.03125 -15.5 19.5625 C-17.27460185 21.26316011 -18.61006256 21.58794182 -21 22 C-20.1875 19.5625 -20.1875 19.5625 -19 17 C-18.01 16.67 -17.02 16.34 -16 16 C-15.31379969 14.67661368 -14.65213539 13.34050052 -14 12 C-9.87596048 6.29198683 -9.87596048 6.29198683 -6 5 C-3.8125 5.9375 -3.8125 5.9375 -2 7 C-1.34 4.69 -0.68 2.38 0 0 Z " fill="#D9B062" transform="translate(150,168)"/>
<path d="M0 0 C4.73333862 0.28686901 7.04880858 2.51652573 10.3515625 5.625 C12.0653207 7.22445871 12.0653207 7.22445871 15 8 C15 8.66 15 9.32 15 10 C18.00950123 11.61725534 20.97103608 12.67582623 24.25 13.625 C25.14203125 13.88539063 26.0340625 14.14578125 26.953125 14.4140625 C27.62859375 14.60742188 28.3040625 14.80078125 29 15 C24.85755366 16.7447513 21.22271565 15.13521612 17.1875 13.8125 C16.50107422 13.60302734 15.81464844 13.39355469 15.10742188 13.17773438 C9.23810352 11.30643798 3.52180462 9.28270693 0 4 C0 2.68 0 1.36 0 0 Z " fill="#D1AB64" transform="translate(62,182)"/>
<path d="M0 0 C0.66 1.32 1.32 2.64 2 4 C1.67 4.33 1.34 4.66 1 5 C2.32 4.01 3.64 3.02 5 2 C5.66 2.33 6.32 2.66 7 3 C5.02 5.31 3.04 7.62 1 10 C1.66 10.33 2.32 10.66 3 11 C2.01 12.485 2.01 12.485 1 14 C-0.32 13.34 -1.64 12.68 -3 12 C-3.144375 12.5775 -3.28875 13.155 -3.4375 13.75 C-3.623125 14.4925 -3.80875 15.235 -4 16 C-4.103125 16.680625 -4.20625 17.36125 -4.3125 18.0625 C-5.26044942 20.73399382 -6.55710078 21.63485043 -9 23 C-9.99 22.67 -10.98 22.34 -12 22 C-8 14.66666667 -4 7.33333333 0 0 Z " fill="#3F89AC" transform="translate(93,9)"/>
<path d="M0 0 C-2.27276612 2.38099308 -4.69756224 4.37879535 -7.3125 6.375 C-10.94756091 9.17257139 -14.49866501 12.03733193 -18 15 C-17.40072174 11.64404172 -16.15377564 9.62198774 -14 7 C-15.98 8.32 -17.96 9.64 -20 11 C-20.66 10.67 -21.32 10.34 -22 10 C-6.44067797 -0.80508475 -6.44067797 -0.80508475 0 0 Z " fill="#B79C60" transform="translate(81,88)"/>
<path d="M0 0 C0.66 0 1.32 0 2 0 C2.02685095 2.47923801 2.04676547 4.9581884 2.0625 7.4375 C2.07087891 8.14455078 2.07925781 8.85160156 2.08789062 9.58007812 C2.09653588 11.38693559 2.05220011 13.19387603 2 15 C1 16 1 16 -1.6875 16.1328125 C-2.780625 16.13023437 -3.87375 16.12765625 -5 16.125 C-6.093125 16.12757813 -7.18625 16.13015625 -8.3125 16.1328125 C-11 16 -11 16 -12 15 C-12.04092937 12.66702567 -12.04241723 10.33294775 -12 8 C-10 10 -10 10 -10 13 C-8.329375 12.7215625 -8.329375 12.7215625 -6.625 12.4375 C-3 12 -3 12 -1 13 C-0.67 8.71 -0.34 4.42 0 0 Z " fill="#34607B" transform="translate(105,136)"/>
<path d="M0 0 C0.33 0 0.66 0 1 0 C1.33 4.62 1.66 9.24 2 14 C3.299375 13.855625 4.59875 13.71125 5.9375 13.5625 C6.66839844 13.48128906 7.39929688 13.40007812 8.15234375 13.31640625 C10.01140229 13.18113386 10.01140229 13.18113386 11 12 C11.23427778 9.98405418 11.41336124 7.961526 11.5625 5.9375 C11.64628906 4.83277344 11.73007813 3.72804687 11.81640625 2.58984375 C11.87699219 1.73519531 11.93757813 0.88054687 12 0 C14.25414782 3.38122173 14.24544447 4.6064728 14.1875 8.5625 C14.17783203 10.01849609 14.17783203 10.01849609 14.16796875 11.50390625 C14 14 14 14 13 16 C11.02090602 16.02686553 9.04171029 16.04633375 7.0625 16.0625 C5.96035156 16.07410156 4.85820313 16.08570313 3.72265625 16.09765625 C1 16 1 16 0 15 C-0.07313567 12.46950598 -0.09247527 9.96695163 -0.0625 7.4375 C-0.05798828 6.72658203 -0.05347656 6.01566406 -0.04882812 5.28320312 C-0.03700864 3.52209987 -0.01907263 1.76103964 0 0 Z " fill="#345F79" transform="translate(114,136)"/>
<path d="M0 0 C8.26034175 7.28853684 12.89213248 17.27168119 15 28 C14.59765625 30.3828125 14.59765625 30.3828125 14 32 C13.63648438 30.96101563 13.27296875 29.92203125 12.8984375 28.8515625 C9.98093979 20.69333821 6.88334936 13.22206185 2 6 C0 3 0 3 0 0 Z " fill="#38566F" transform="translate(152,88)"/>
<path d="M0 0 C0.6875 1.625 0.6875 1.625 1 4 C-0.4375 7.25 -0.4375 7.25 -2 10 C-2.66 10 -3.32 10 -4 10 C-4.66 12.31 -5.32 14.62 -6 17 C-6.66 17 -7.32 17 -8 17 C-8.12375 17.556875 -8.2475 18.11375 -8.375 18.6875 C-9.05976855 21.22114364 -9.99133763 23.57921032 -11 26 C-11.66 26 -12.32 26 -13 26 C-13.99 28.475 -13.99 28.475 -15 31 C-15.66 31 -16.32 31 -17 31 C-15.55870627 27.15596254 -13.78609665 23.65643805 -11.77734375 20.078125 C-11.15666016 18.97082031 -10.53597656 17.86351562 -9.89648438 16.72265625 C-9.25001953 15.57667969 -8.60355469 14.43070313 -7.9375 13.25 C-7.280357 12.07695843 -6.62345358 10.90378261 -5.96679688 9.73046875 C-1.13784004 1.13784004 -1.13784004 1.13784004 0 0 Z " fill="#3D687F" transform="translate(77,34)"/>
<path d="M0 0 C2 2 2 2 2.4375 4.3125 C1.82170578 8.09523595 -0.21507395 9.48677405 -3 12 C-3.33 12.66 -3.66 13.32 -4 14 C-6.32156597 14.40729228 -8.6568787 14.74438677 -11 15 C-9.49767891 11.55488672 -7.47594341 9.12997125 -4.9375 6.375 C-2.14219542 3.41210833 -2.14219542 3.41210833 0 0 Z " fill="#977A51" transform="translate(139,153)"/>
<path d="M0 0 C0 3.96 0 7.92 0 12 C-1.98 12.99 -1.98 12.99 -4 14 C-4 11.36 -4 8.72 -4 6 C-4.66 6 -5.32 6 -6 6 C-6 5.01 -6 4.02 -6 3 C-6.66 2.67 -7.32 2.34 -8 2 C-4.91190305 0.23537317 -3.76687864 0 0 0 Z " fill="#4FA7CC" transform="translate(126,106)"/>
<path d="M0 0 C8.57427491 0.87492601 14.93557091 4.35766088 22 9 C19.50907189 10.24546405 18.58919267 9.7767578 16 9 C16 8.34 16 7.68 16 7 C15.34 7 14.68 7 14 7 C13.67 7.99 13.34 8.98 13 10 C8.61105071 6.73279209 4.24740335 3.45101522 0 0 Z " fill="#BD9D5C" transform="translate(118,88)"/>
<path d="M0 0 C-0.51949219 0.67804688 -1.03898437 1.35609375 -1.57421875 2.0546875 C-8.44324743 11.22185702 -13.09739006 19.90872623 -16 31 C-16.33 31 -16.66 31 -17 31 C-17.44732543 24.51378128 -16.38779455 20.74779868 -13.125 15.1875 C-12.76019531 14.53330078 -12.39539062 13.87910156 -12.01953125 13.20507812 C-10.44163733 10.39642694 -8.78729155 7.68093733 -7 5 C-6.61500109 3.34450469 -6.27206865 1.6777567 -6 0 C-2.25 -1.125 -2.25 -1.125 0 0 Z " fill="#465B56" transform="translate(50,107)"/>
<path d="M0 0 C3.02419525 0.58803797 6.01758453 1.22678118 9 2 C9 2.66 9 3.32 9 4 C10.65 4 12.3 4 14 4 C14 4.66 14 5.32 14 6 C14.99 6 15.98 6 17 6 C17.2475 6.9075 17.495 7.815 17.75 8.75 C19.03981342 12.10351489 20.31971042 13.67708236 23 16 C22.67 16.66 22.34 17.32 22 18 C21.50113281 17.443125 21.00226563 16.88625 20.48828125 16.3125 C14.99849583 10.47775499 9.40195896 6.50010002 2.52734375 2.53125 C1.69332031 2.0259375 0.85929688 1.520625 0 1 C0 0.67 0 0.34 0 0 Z " fill="#436160" transform="translate(129,90)"/>
<path d="M0 0 C0.33 0 0.66 0 1 0 C1 8.25 1 16.5 1 25 C0.34 24.34 -0.32 23.68 -1 23 C-1 22.01 -1 21.02 -1 20 C-1.66 20 -2.32 20 -3 20 C-3.24692314 13.42910088 -2.97136251 7.31699374 -1 1 C-0.67 0.67 -0.34 0.34 0 0 Z " fill="#845D34" transform="translate(54,119)"/>
<path d="M0 0 C1.32 0.33 2.64 0.66 4 1 C3.29875 1.42410156 2.5975 1.84820312 1.875 2.28515625 C-4.25047922 6.07196745 -9.75866806 10.05903093 -15 15 C-15.33 14.01 -15.66 13.02 -16 12 C-16.66 11.67 -17.32 11.34 -18 11 C-17.01 10.34 -16.02 9.68 -15 9 C-14.01 9.33 -13.02 9.66 -12 10 C-11.67 8.68 -11.34 7.36 -11 6 C-10.4225 5.896875 -9.845 5.79375 -9.25 5.6875 C-6.90012053 5.11076107 -6.90012053 5.11076107 -4.9375 3.4375 C-3 2 -3 2 0 2 C0 1.34 0 0.68 0 0 Z " fill="#49625C" transform="translate(67,90)"/>
<path d="M0 0 C0.625 1.8125 0.625 1.8125 1 4 C0.01 5.485 0.01 5.485 -1 7 C-1.66 7 -2.32 7 -3 7 C-3 8.98 -3 10.96 -3 13 C-3.99 13.495 -3.99 13.495 -5 14 C-5 15.98 -5 17.96 -5 20 C-6.32 20.33 -7.64 20.66 -9 21 C-9.6585507 15.12792295 -7.56144833 11.86886588 -4.5 7.125 C-4.07074219 6.43664062 -3.64148437 5.74828125 -3.19921875 5.0390625 C-2.1447243 3.35187139 -1.07396075 1.67486736 0 0 Z " fill="#345C74" transform="translate(51,79)"/>
<path d="M0 0 C0.33 0 0.66 0 1 0 C1.33 5.28 1.66 10.56 2 16 C2.66 15.34 3.32 14.68 4 14 C4.66 14.66 5.32 15.32 6 16 C5.6875 17.875 5.6875 17.875 5 20 C4.30854921 22.53531955 4 24.3294087 4 27 C3.34 27 2.68 27 2 27 C-0.641513 18.08489362 -0.17875809 9.20604186 0 0 Z " fill="#A47C3A" transform="translate(50,132)"/>
<path d="M0 0 C0.33 0 0.66 0 1 0 C1 4.62 1 9.24 1 14 C4.3 14 7.6 14 11 14 C11 12.02 11 10.04 11 8 C11.66 8 12.32 8 13 8 C13.04241723 10.33294775 13.04092937 12.66702567 13 15 C12 16 12 16 9.27734375 16.09765625 C6.18489583 16.06510417 3.09244792 16.03255208 0 16 C0 10.72 0 5.44 0 0 Z " fill="#315972" transform="translate(73,136)"/>
<path d="M0 0 C0.33 0 0.66 0 1 0 C1.99 6.27 2.98 12.54 4 19 C1.48916886 17.74458443 1.12874554 16.49936512 0 14 C-0.66 14.66 -1.32 15.32 -2 16 C-3 15 -3 15 -3.09765625 12.93359375 C-3.08605469 12.10988281 -3.07445312 11.28617188 -3.0625 10.4375 C-3.05347656 9.61121094 -3.04445312 8.78492188 -3.03515625 7.93359375 C-3.02355469 7.29550781 -3.01195312 6.65742188 -3 6 C-2.34 6 -1.68 6 -1 6 C-0.67 6.66 -0.34 7.32 0 8 C0 5.36 0 2.72 0 0 Z " fill="#8F6F45" transform="translate(54,133)"/>
<path d="M0 0 C0.6875 1.6875 0.6875 1.6875 1 4 C0.03567924 5.68756133 -0.9731657 7.3497306 -2 9 C-4.29459217 14.59708932 -5.45377822 19.99156041 -6 26 C-7.5625 24.25 -7.5625 24.25 -9 22 C-8.45518135 18.38142837 -6.92359692 14.96639798 -5.625 11.5625 C-5.20476563 10.45003906 -4.78453125 9.33757812 -4.3515625 8.19140625 C-3.11207856 5.26464794 -1.70905664 2.67352428 0 0 Z " fill="#B7A066" transform="translate(41,118)"/>
<path d="M0 0 C2 3 2 3 2 5 C0.23358317 5.6987693 -1.53832664 6.38366583 -3.3125 7.0625 C-4.79169922 7.63677734 -4.79169922 7.63677734 -6.30078125 8.22265625 C-9 9 -9 9 -12 8 C-10.75312408 7.03760548 -9.50235031 6.08025991 -8.25 5.125 C-7.55390625 4.59132812 -6.8578125 4.05765625 -6.140625 3.5078125 C-4.15277397 2.10761086 -2.20156614 1.02144735 0 0 Z " fill="#CAA263" transform="translate(129,187)"/>
<path d="M0 0 C1.9375 0.3125 1.9375 0.3125 4 1 C4.33 1.99 4.66 2.98 5 4 C5.66 4.33 6.32 4.66 7 5 C7.33 5.99 7.66 6.98 8 8 C8.66 8.33 9.32 8.66 10 9 C10.6328125 11.50390625 10.6328125 11.50390625 11.125 14.5625 C11.29257813 15.57441406 11.46015625 16.58632812 11.6328125 17.62890625 C11.75398437 18.41136719 11.87515625 19.19382812 12 20 C9.84585129 17.84585129 8.97755608 16.05649551 7.6875 13.3125 C5.50174482 8.82389561 2.97622494 4.99664492 0 1 C0 0.67 0 0.34 0 0 Z " fill="#425753" transform="translate(152,108)"/>
<path d="M0 0 C0.33 1.32 0.66 2.64 1 4 C0.34 4 -0.32 4 -1 4 C-0.649375 4.5775 -0.29875 5.155 0.0625 5.75 C1 8 1 8 0 12 C-2.31 9.03 -4.62 6.06 -7 3 C-3 0 -3 0 0 0 Z " fill="#3A7FA2" transform="translate(111,40)"/>
<path d="M0 0 C2.78388975 1.70625501 3.85384206 2.47626739 4.75 5.6875 C4.87375 6.8321875 4.87375 6.8321875 5 8 C4.01 8.66 3.02 9.32 2 10 C0.83040013 9.02433888 -0.33561177 8.044375 -1.5 7.0625 C-2.1496875 6.51722656 -2.799375 5.97195312 -3.46875 5.41015625 C-3.9740625 4.94480469 -4.479375 4.47945312 -5 4 C-5 3.67 -5 3.34 -5 3 C-3.35 2.67 -1.7 2.34 0 2 C0 1.34 0 0.68 0 0 Z " fill="#DAB05F" transform="translate(59,175)"/>
<path d="M0 0 C0.33 0 0.66 0 1 0 C0.67 2.31 0.34 4.62 0 7 C0.99 6.67 1.98 6.34 3 6 C3.33 7.65 3.66 9.3 4 11 C1.09399739 12.25664978 -0.79604584 13 -4 13 C-3.79503906 12.39671875 -3.59007812 11.7934375 -3.37890625 11.171875 C-2.97478516 9.97304687 -2.97478516 9.97304687 -2.5625 8.75 C-2.29566406 7.96109375 -2.02882812 7.1721875 -1.75390625 6.359375 C-1.08045292 4.25178012 -0.50849405 2.15246027 0 0 Z " fill="#8A7149" transform="translate(144,140)"/>
<path d="M0 0 C4.93594108 7.40391163 4.04517226 15.08152418 2.5078125 23.5078125 C2.34023437 24.33023438 2.17265625 25.15265625 2 26 C1.67 26 1.34 26 1 26 C1.01740234 24.57107422 1.01740234 24.57107422 1.03515625 23.11328125 C1.04417969 21.85902344 1.05320313 20.60476562 1.0625 19.3125 C1.07410156 18.07113281 1.08570313 16.82976562 1.09765625 15.55078125 C1.01433226 12.52112098 0.64465388 9.94123331 0 7 C-0.03824623 4.66698014 -0.04574284 2.33288492 0 0 Z " fill="#967A48" transform="translate(144,114)"/>
<path d="M0 0 C-0.33 1.98 -0.66 3.96 -1 6 C-3.64 5.67 -6.28 5.34 -9 5 C-9.33 3.68 -9.66 2.36 -10 1 C-8.68 1 -7.36 1 -6 1 C-1.75 0 -1.75 0 0 0 Z " fill="#33698A" transform="translate(120,79)"/>
<path d="M0 0 C4.40021656 0.36668471 6.744666 2.11670417 10 5 C9.67 5.66 9.34 6.32 9 7 C8.236875 6.814375 7.47375 6.62875 6.6875 6.4375 C3.91032625 5.77180827 3.91032625 5.77180827 1 7 C0.34 5.02 -0.32 3.04 -1 1 C-0.67 0.67 -0.34 0.34 0 0 Z " fill="#316B8D" transform="translate(130,73)"/>
<path d="M0 0 C1.12733524 3.94567332 1.32234763 7.03295711 0 11 C-2.5625 12.1875 -2.5625 12.1875 -5 13 C-5.66 12.34 -6.32 11.68 -7 11 C-6.67 10.34 -6.34 9.68 -6 9 C-5.34 9 -4.68 9 -4 9 C-3.71125 8.071875 -3.4225 7.14375 -3.125 6.1875 C-2 3 -2 3 0 0 Z " fill="#3A7EA2" transform="translate(79,35)"/>
<path d="M0 0 C-1.32 0.33 -2.64 0.66 -4 1 C-4 1.66 -4 2.32 -4 3 C-4.94875 3.45375 -5.8975 3.9075 -6.875 4.375 C-10.00313679 5.80238254 -10.00313679 5.80238254 -12 8 C-12.99 8 -13.98 8 -15 8 C-15 7.34 -15 6.68 -15 6 C-14.34 6 -13.68 6 -13 6 C-12.79375 5.401875 -12.5875 4.80375 -12.375 4.1875 C-9.42744018 -0.50179972 -5.11238209 -1.65400597 0 0 Z " fill="#30647C" transform="translate(71,89)"/>
<path d="M0 0 C2 2 2 2 2 5 C3.670625 4.7215625 3.670625 4.7215625 5.375 4.4375 C9 4 9 4 11 5 C11.33 4.34 11.66 3.68 12 3 C11.67 4.32 11.34 5.64 11 7 C9.35492782 7.19406478 7.70890406 7.38007935 6.0625 7.5625 C4.68771484 7.71912109 4.68771484 7.71912109 3.28515625 7.87890625 C2.53105469 7.91886719 1.77695313 7.95882812 1 8 C0 7 0 7 -0.0625 3.4375 C-0.041875 2.303125 -0.02125 1.16875 0 0 Z " fill="#33617F" transform="translate(93,144)"/>
<path d="M0 0 C3.65316671 1.24976756 4.78065836 1.67098753 7 5 C6.625 7.1875 6.625 7.1875 6 9 C4.02 8.34 2.04 7.68 0 7 C0 4.69 0 2.38 0 0 Z " fill="#2F5F83" transform="translate(152,95)"/>
<path d="M0 0 C0.33 0 0.66 0 1 0 C1 5.94 1 11.88 1 18 C0.34 18 -0.32 18 -1 18 C-1.66 14.37 -2.32 10.74 -3 7 C-2.67 7.66 -2.34 8.32 -2 9 C-1.34 9 -0.68 9 0 9 C0 6.03 0 3.06 0 0 Z " fill="#474E4C" transform="translate(167,121)"/>
<path d="M0 0 C5.5892934 -0.28420136 8.27268165 -0.15154557 13 3 C15.31691454 3.72166191 17.64848923 4.40059529 20 5 C16.94371936 5.97812873 15.14722553 6.00835683 12.109375 5.00390625 C11.40039062 4.77509766 10.69140625 4.54628906 9.9609375 4.31054688 C9.23132813 4.06369141 8.50171875 3.81683594 7.75 3.5625 C7.00492187 3.31951172 6.25984375 3.07652344 5.4921875 2.82617188 C3.65841765 2.22667019 1.82877996 1.61455513 0 1 C0 0.67 0 0.34 0 0 Z " fill="#BE9E6E" transform="translate(71,192)"/>
<path d="M0 0 C2.20914 3.31371 2.22481553 4.3446021 2.125 8.1875 C2.10695312 9.08855469 2.08890625 9.98960938 2.0703125 10.91796875 C2.03550781 11.94857422 2.03550781 11.94857422 2 13 C1.34 13 0.68 13 0 13 C-0.53229326 11.73392393 -1.05044544 10.46189588 -1.5625 9.1875 C-1.85253906 8.47980469 -2.14257812 7.77210937 -2.44140625 7.04296875 C-3 5 -3 5 -2 2 C-1.34 2.66 -0.68 3.32 0 4 C0 2.68 0 1.36 0 0 Z " fill="#23435E" transform="translate(165,117)"/>
<path d="M0 0 C0.86625 0.2784375 0.86625 0.2784375 1.75 0.5625 C4.20692525 1.04023546 5.64397534 0.75729364 8 0 C7.34 1.65 6.68 3.3 6 5 C3.525 4.01 3.525 4.01 1 3 C1 3.66 1 4.32 1 5 C0.01 5.33 -0.98 5.66 -2 6 C-1.34 4.02 -0.68 2.04 0 0 Z " fill="#D79E38" transform="translate(51,107)"/>
<path d="M0 0 C0.66 0 1.32 0 2 0 C1.67 1.65 1.34 3.3 1 5 C0.34 5 -0.32 5 -1 5 C-1.268125 5.928125 -1.53625 6.85625 -1.8125 7.8125 C-2.91148371 10.76240366 -3.62418561 12.05615186 -6 14 C-5.58742287 8.49897163 -3.45277325 4.23798336 0 0 Z " fill="#356177" transform="translate(59,65)"/>
<path d="M0 0 C0.33 0.66 0.66 1.32 1 2 C1.66 2 2.32 2 3 2 C3.625 4.875 3.625 4.875 4 8 C3.34 8.66 2.68 9.32 2 10 C1.01 9.34 0.02 8.68 -1 8 C-1.25 4.4375 -1.25 4.4375 -1 1 C-0.67 0.67 -0.34 0.34 0 0 Z " fill="#397FA4" transform="translate(121,38)"/>
<path d="M0 0 C0.66 0 1.32 0 2 0 C2 0.66 2 1.32 2 2 C2.66 2 3.32 2 4 2 C4.33 4.31 4.66 6.62 5 9 C4.01 9.33 3.02 9.66 2 10 C1.34 9.67 0.68 9.34 0 9 C0.185625 8.2575 0.37125 7.515 0.5625 6.75 C0.99203108 4.05009037 0.85122974 2.55368923 0 0 Z " fill="#3D86A9" transform="translate(112,23)"/>
<path d="M0 0 C0.66 0.66 1.32 1.32 2 2 C0.63016497 5.16115776 0.0109362 5.9927092 -3 8 C-3.99 7.67 -4.98 7.34 -6 7 C-6 5 -6 5 -4 3 C-2.67607028 1.98758315 -1.34400833 0.98560611 0 0 Z " fill="#A8803F" transform="translate(132,166)"/>
<path d="M0 0 C1 2 1 2 0.00390625 5.4765625 C-0.46900047 6.86197936 -0.94981644 8.24471547 -1.4375 9.625 C-1.68048828 10.33140625 -1.92347656 11.0378125 -2.17382812 11.765625 C-2.77587205 13.51273287 -3.38708017 15.25667786 -4 17 C-4.33 17 -4.66 17 -5 17 C-5.64317031 9.92512658 -3.82735898 5.90506815 0 0 Z " fill="#404D43" transform="translate(38,121)"/>
<path d="M0 0 C0.33 0 0.66 0 1 0 C1.33 4.29 1.66 8.58 2 13 C0.68 12.67 -0.64 12.34 -2 12 C-1.34 8.04 -0.68 4.08 0 0 Z " fill="#7C5F30" transform="translate(146,135)"/>
<path d="M0 0 C0.66 0 1.32 0 2 0 C2.53341184 1.57914015 3.05125763 3.16354387 3.5625 4.75 C3.85253906 5.63171875 4.14257812 6.5134375 4.44140625 7.421875 C5.01697435 10.07834316 4.89248371 11.47031106 4 14 C3.32739649 12.23141309 2.66211605 10.46003984 2 8.6875 C1.62875 7.70136719 1.2575 6.71523437 0.875 5.69921875 C0 3 0 3 0 0 Z " fill="#374F65" transform="translate(162,106)"/>
<path d="M0 0 C3.59634744 3.49359465 6.83451967 7.11098131 10 11 C9.67 11.66 9.34 12.32 9 13 C8.60167969 12.51789063 8.20335937 12.03578125 7.79296875 11.5390625 C7.26316406 10.90742187 6.73335937 10.27578125 6.1875 9.625 C5.66542969 8.99851562 5.14335937 8.37203125 4.60546875 7.7265625 C2.91774261 5.7778952 2.91774261 5.7778952 0 4 C0 2.68 0 1.36 0 0 Z " fill="#B39857" transform="translate(149,106)"/>
<path d="M0 0 C0.66 0.33 1.32 0.66 2 1 C1.65120368 4.25543229 0.97866739 5.01873107 -1.5625 7.25 C-2.7690625 8.11625 -2.7690625 8.11625 -4 9 C-4 8.01 -4 7.02 -4 6 C-4.66 5.67 -5.32 5.34 -6 5 C-5.01 4.34 -4.02 3.68 -3 3 C-2.01 3.33 -1.02 3.66 0 4 C0 2.68 0 1.36 0 0 Z " fill="#3D6068" transform="translate(55,96)"/>
<path d="M0 0 C-2.3432476 2.71323406 -4.53295129 4.0465616 -8 5 C-8.99 4.34 -9.98 3.68 -11 3 C-7.14243493 0.84694043 -4.44870215 -0.39253254 0 0 Z " fill="#A18E66" transform="translate(81,88)"/>
<path d="M0 0 C2.72426311 2.35277269 3.8141763 4.62496331 5 8 C4.1646875 7.566875 4.1646875 7.566875 3.3125 7.125 C0.91505355 5.9586747 -1.51596939 4.9660119 -4 4 C-3.34 3.67 -2.68 3.34 -2 3 C-1.67 2.34 -1.34 1.68 -1 1 C-0.67 0.67 -0.34 0.34 0 0 Z " fill="#A38043" transform="translate(61,155)"/>
<path d="M0 0 C4.3177458 0.50797009 8.03302114 1.19682779 12 3 C12 3.33 12 3.66 12 4 C7.75519536 4.33292585 5.64457375 4.43885872 2.0625 2 C1.381875 1.34 0.70125 0.68 0 0 Z " fill="#A79D66" transform="translate(118,88)"/>
<path d="M0 0 C2.29199177 0.14063135 4.58359186 0.28765943 6.875 0.4375 C8.15117188 0.51871094 9.42734375 0.59992188 10.7421875 0.68359375 C14 1 14 1 16 2 C16 2.66 16 3.32 16 4 C10.63486869 3.152874 5.3212615 2.08318169 0 1 C0 0.67 0 0.34 0 0 Z " fill="#566A6D" transform="translate(113,86)"/>
<path d="M0 0 C0 0.99 0 1.98 0 3 C-2 4.6875 -2 4.6875 -4 6 C-4.99 4.35 -5.98 2.7 -7 1 C-4.53721199 -0.231394 -2.7204945 -0.07159196 0 0 Z " fill="#3C7EA0" transform="translate(95,41)"/>
<path d="M0 0 C0.33 0.99 0.66 1.98 1 3 C1.763125 2.690625 2.52625 2.38125 3.3125 2.0625 C5.18789677 1.32106407 7.08684652 0.63771783 9 0 C9 1.32 9 2.64 9 4 C5.7 4 2.4 4 -1 4 C-0.67 2.68 -0.34 1.36 0 0 Z " fill="#367495" transform="translate(75,146)"/>
<path d="M0 0 C0.33 0 0.66 0 1 0 C1 2.64 1 5.28 1 8 C0.34 8 -0.32 8 -1 8 C-1 9.32 -1 10.64 -1 12 C-1.66 12 -2.32 12 -3 12 C-2.69230293 10.18667846 -2.37870936 8.37435655 -2.0625 6.5625 C-1.80146484 5.04849609 -1.80146484 5.04849609 -1.53515625 3.50390625 C-1 1 -1 1 0 0 Z " fill="#8A6A35" transform="translate(54,119)"/>
<path d="M0 0 C0.66 0.66 1.32 1.32 2 2 C-1.4352048 4.29013653 -2.985331 4.17842973 -7 4 C-7.33 3.34 -7.66 2.68 -8 2 C-6.71254964 1.61077082 -5.41980403 1.23901964 -4.125 0.875 C-3.04605469 0.56175781 -3.04605469 0.56175781 -1.9453125 0.2421875 C-1.30335937 0.16226563 -0.66140625 0.08234375 0 0 Z " fill="#2F6589" transform="translate(93,80)"/>
<path d="M0 0 C0.6875 1.625 0.6875 1.625 1 4 C-0.4375 7.25 -0.4375 7.25 -2 10 C-2.99 10 -3.98 10 -5 10 C-3.66511872 6.40608886 -2.03977277 3.24509304 0 0 Z " fill="#436D89" transform="translate(77,34)"/>
<path d="M0 0 C3 1 3 1 4.1875 2.6875 C5.19313465 5.54969093 5.13689641 7.98827908 5 11 C0 3.5 0 3.5 0 0 Z " fill="#C09A57" transform="translate(139,106)"/>
<path d="M0 0 C0.625 1.8125 0.625 1.8125 1 4 C0.01 5.485 0.01 5.485 -1 7 C-1.66 7 -2.32 7 -3 7 C-3.66 8.65 -4.32 10.3 -5 12 C-5.33 11.34 -5.66 10.68 -6 10 C-4.78515625 7.6171875 -4.78515625 7.6171875 -3.0625 4.875 C-2.21365234 3.50988281 -2.21365234 3.50988281 -1.34765625 2.1171875 C-0.90292969 1.41851562 -0.45820312 0.71984375 0 0 Z " fill="#436177" transform="translate(51,79)"/>
<path d="M0 0 C0.99 0.33 1.98 0.66 3 1 C2.67 2.65 2.34 4.3 2 6 C-0.64 6 -3.28 6 -6 6 C-6 5.67 -6 5.34 -6 5 C-4.35 4.67 -2.7 4.34 -1 4 C-0.67 2.68 -0.34 1.36 0 0 Z " fill="#306787" transform="translate(81,80)"/>
<path d="M0 0 C2.61500768 2.36595933 4.38999603 4.86049226 6 8 C5.67 8.66 5.34 9.32 5 10 C0.07692308 5.69230769 0.07692308 5.69230769 -0.3125 2.1875 C-0.209375 1.465625 -0.10625 0.74375 0 0 Z " fill="#457286" transform="translate(124,38)"/>
<path d="M0 0 C1.12377697 3.30435084 0.89554742 5.0506862 -0.4375 8.25 C-0.72496094 8.95640625 -1.01242188 9.6628125 -1.30859375 10.390625 C-1.53675781 10.92171875 -1.76492187 11.4528125 -2 12 C-3.30532548 9.38934904 -2.78282536 8.2445219 -2.125 5.4375 C-1.94195312 4.63183594 -1.75890625 3.82617188 -1.5703125 2.99609375 C-1 1 -1 1 0 0 Z " fill="#CDAE78" transform="translate(166,143)"/>
<path d="M0 0 C0 0.99 0 1.98 0 3 C-2.31 3.66 -4.62 4.32 -7 5 C-6.6875 3.0625 -6.6875 3.0625 -6 1 C-3 0 -3 0 0 0 Z " fill="#4DA1C4" transform="translate(105,115)"/>
<path d="M0 0 C-1.125 1.5 -1.125 1.5 -3 3 C-6.1875 3.1875 -6.1875 3.1875 -9 3 C-8.34 2.67 -7.68 2.34 -7 2 C-7 1.34 -7 0.68 -7 0 C-4.3333581 -1.33332095 -2.83319697 -0.67102033 0 0 Z " fill="#2F6F91" transform="translate(123,68)"/>
<path d="M0 0 C0.99 0 1.98 0 3 0 C3.99 2.97 4.98 5.94 6 9 C3 8 3 8 2.05078125 6.15234375 C1.80714844 5.42144531 1.56351562 4.69054687 1.3125 3.9375 C1.06113281 3.20402344 0.80976562 2.47054688 0.55078125 1.71484375 C0.36902344 1.14894531 0.18726562 0.58304687 0 0 Z " fill="#457C8F" transform="translate(105,6)"/>
<path d="M0 0 C2.475 0.495 2.475 0.495 5 1 C5 3 5 3 3.625 4.625 C2 6 2 6 0 6 C0 4.02 0 2.04 0 0 Z " fill="#42717F" transform="translate(107,0)"/>
<path d="M0 0 C2.97 0.99 5.94 1.98 9 3 C9 3.33 9 3.66 9 4 C6.03 4 3.06 4 0 4 C0 2.68 0 1.36 0 0 Z " fill="#A2875F" transform="translate(79,171)"/>
<path d="M0 0 C0.66 0.66 1.32 1.32 2 2 C1.625 4.625 1.625 4.625 1 7 C-1.64 7 -4.28 7 -7 7 C-7 6.67 -7 6.34 -7 6 C-5.02 5.67 -3.04 5.34 -1 5 C-0.67 3.35 -0.34 1.7 0 0 Z " fill="#2C4F65" transform="translate(105,145)"/>
<path d="M0 0 C0.66 0 1.32 0 2 0 C2 0.99 2 1.98 2 3 C2.99 3.33 3.98 3.66 5 4 C0.545 4.495 0.545 4.495 -4 5 C-3.01 4.67 -2.02 4.34 -1 4 C-0.26676204 1.98491642 -0.26676204 1.98491642 0 0 Z " fill="#B48E5C" transform="translate(112,193)"/>
<path d="M0 0 C1 3 1 3 0 6 C-1.32 5.34 -2.64 4.68 -4 4 C-2.68 2.68 -1.36 1.36 0 0 Z " fill="#DDB35F" transform="translate(47,162)"/>
<path d="M0 0 C0.33 0 0.66 0 1 0 C1 3.3 1 6.6 1 10 C-2 6 -2 6 -1.75 3.875 C-1 2 -1 2 0 0 Z " fill="#AE955F" transform="translate(34,134)"/>
<path d="M0 0 C0.66 0.33 1.32 0.66 2 1 C0.19587357 4.26460973 -0.83394693 5.88929795 -4 8 C-3.40072174 4.64404172 -2.15377564 2.62198774 0 0 Z " fill="#BA9851" transform="translate(67,95)"/>
</svg>
